<svg xmlns="http://www.w3.org/2000/svg" fill="none" height="18.9632" overflow="visible" preserveAspectRatio="none" style="display: block;" viewBox="0 0 26.8516 18.9632" width="26.8516">
<path d="M19.6764 0C19.8002 0 19.9112 0.0759949 19.956 0.191351L26.8446 17.9207C26.8755 18.0002 26.7992 18.0793 26.7186 18.0514L25.0694 17.4793C25.0434 17.4703 25.0158 17.4667 24.9884 17.4688L10.8696 18.5572C10.7989 18.5626 10.7365 18.605 10.7053 18.6686L10.5885 18.9071C10.5637 18.9579 10.5017 18.978 10.4518 18.9515L0.106143 13.4503C0.00606412 13.3971 -0.0298344 13.2715 0.027034 13.1734L7.60977 0.0996565C7.64555 0.0379698 7.71146 0 7.78277 0H19.6764ZM15.2124 9.5L11.2564 17.5471C11.2222 17.6166 11.2766 17.6969 11.3538 17.6909L16.8136 17.2701C16.9178 17.2621 16.9983 17.1752 16.9983 17.0707V9.17266C16.9983 9.11993 17.0392 9.07625 17.0918 9.07287L20.4914 8.8542C20.549 8.8505 20.5978 8.89624 20.5978 8.954V16.7633C20.5978 16.8795 20.6964 16.9712 20.8122 16.9628L24.9289 16.6646C24.9958 16.6597 25.0391 16.5917 25.015 16.529L19.2841 1.59578C19.2529 1.5143 19.1395 1.50917 19.101 1.5875L15.2124 9.5Z" fill="#FBFFFE" id="Union"/>
</svg>