<svg xmlns="http://www.w3.org/2000/svg" fill="none" height="31" overflow="visible" preserveAspectRatio="none" style="display: block;" viewBox="0 0 107 31" width="107">
<path d="M79.7548 0.5C79.7186 0.5 64.5254 0.54628 40.9959 0.707517C27.4741 0.800175 14.4222 6.84454 6.5608 11.318C2.14193 13.8325 0.983099 18.024 0.508824 24.8152C0.413584 26.1789 1.09894 26.6538 1.94285 27.1673C3.88016 28.3459 10.9906 29.3623 24.5255 30.2416C32.3698 30.7512 42.2952 30.4752 53.6986 29.6934C65.102 28.9117 77.7083 27.3989 85.896 26.2034C97.5827 24.4971 102.254 22.8336 104.524 21.8793C105.541 21.4517 106.118 20.9691 106.372 20.3348C106.625 19.7004 106.494 18.8855 106.064 18.1785C103.21 13.4867 88.9459 8.27664 76.5989 4.69284C74.1752 4.13308 72.9614 3.92699 71.1733 3.79804C69.3851 3.66909 67.0596 3.62353 63.1309 4.08717" id="Vector 203" stroke="#FBFFFE" stroke-linecap="round"/>
</svg>